# xmcd CD database file
#
# Track frame offsets:
#	150
#	19226
#	38966
#	61356
#	70969
#	90437
#	115373
#	136578
#	155408
#	167761
#	179704
#
# Disc length: 2666 seconds
#
# Revision: 0
# Processed by: cddbd v1.5.2PL0 Copyright (c) Steve Scherf et al.
# Submitted via: CDex 1.51
#
DISCID=930a680b
DTITLE=Lost Jim - Payday
DYEAR=2006
DGENRE=Blues
TTITLE0=Hot Time In The Old Town Tonight
TTITLE1=Spke Driver's Blues
TTITLE2=CC Rider
TTITLE3=Spanish Flang Dang
TTITLE4=Payday
TTITLE5=Monday Morning Blues
TTITLE6=Louis Collins
TTITLE7=Candyman
TTITLE8=Corrinna Corrinna
TTITLE9=Daddy John
TTITLE10=You've Got To Die
EXTD=YEAR: 2006
EXTT0=
EXTT1=
EXTT2=
EXTT3=
EXTT4=
EXTT5=
EXTT6=
EXTT7=
EXTT8=
EXTT9=
EXTT10=
PLAYORDER=
